#N canvas 14 271 1905 873 10;
#X obj 527 506 dac~;
#X obj 188 227 delwrite~ delaymono 4000;
#X floatatom 205 308 5 0 0 0 - - -, f 5;
#X obj 205 329 sig~;
#X obj 204 357 vd~ delaymono;
#X obj 448 276 *~ 0.6;
#X obj 193 26 adc~;
#X obj 490 174 hsl 128 15 0 0.9 0 0 empty empty empty -2 -8 0 10 -262144
-1 -1 55 1;
#X floatatom 487 211 5 0 0 0 - - -, f 5;
#X obj 207 281 hsl 128 15 0 1000 0 0 empty empty empty -2 -8 0 10 -262144
-1 -1 0 1;
#N canvas 0 50 450 278 (subpatch) 0;
#X array channelL 107330 float 2;
#X coords 0 1 107330 -1 200 140 1;
#X restore 1694 65 graph;
#N canvas 0 50 450 278 (subpatch) 0;
#X array channelR 107330 float 2;
#X coords 0 1 107330 -1 200 140 1 0 0;
#X restore 1697 244 graph;
#X obj 684 634 *~;
#X obj 728 636 *~;
#X obj 818 548 vsl 40 80 0 2 0 0 empty empty empty 0 -9 0 10 -262144
-1 -1 6083 1;
#X msg 1115 487 \; pd dsp \$1;
#X obj 668 199 soundfiler;
#X floatatom 687 222 12 0 0 0 - - -, f 12;
#X obj 669 279 expr 44100 / $f1;
#X obj 688 249 s sampleSize;
#X floatatom 693 310 5 0 0 0 - - -, f 5;
#X obj 670 337 phasor~;
#X obj 671 380 *~;
#X obj 716 366 r sampleSize;
#X obj 673 503 tabread4~ channelL;
#X obj 693 474 tabread4~ channelR;
#X obj 813 362 tgl 15 0 empty empty empty 17 7 0 10 -262144 -1 -1 0
1;
#X obj 813 385 metro 50;
#X obj 813 409 snapshot~;
#X floatatom 813 433 10 0 0 0 - - -, f 10;
#X obj 814 459 /;
#X obj 893 439 r sampleSize;
#X floatatom 828 489 10 0 0 0 - - -, f 10;
#X obj 894 535 r pot8;
#X obj 114 248 r pot6;
#X obj 427 118 r pot7;
#N canvas 595 276 680 532 tcpcom 0;
#X text 77 65 Receive messages from Python and route them to the proper
receive objects;
#X obj 79 196 s p1;
#X obj 116 196 s p2;
#X obj 153 196 s p3;
#X obj 191 196 s p4;
#X obj 81 135 route 0 1 2 3 4 5 6 7 8, f 28;
#X obj 271 199 s p5;
#X obj 309 199 s p6;
#X obj 347 198 s p7;
#X obj 384 198 s p8;
#X obj 433 198 s buttons;
#X floatatom 402 125 5 0 0 0 - - -, f 5;
#X obj 80 102 netreceive 3000 1;
#X connect 5 0 1 0;
#X connect 5 1 2 0;
#X connect 5 2 3 0;
#X connect 5 3 4 0;
#X connect 5 4 6 0;
#X connect 5 5 7 0;
#X connect 5 6 8 0;
#X connect 5 7 9 0;
#X connect 5 8 10 0;
#X connect 12 0 5 0;
#X connect 12 0 11 0;
#X restore 1767 19 pd tcpcom;
#N canvas 557 216 1078 750 routing 0;
#X obj 139 72 hsl 80 15 0 360 0 0 empty empty empty -2 -8 0 10 -228856
-1 -1 110 1;
#X obj 136 150 nbx 5 14 -1e+37 1e+37 0 0 empty empty empty 0 -8 0 10
-228856 -1 -1 161.806 256;
#X obj 136 96 nbx 5 14 -1e+37 1e+37 0 0 empty empty empty 0 -8 0 10
-228856 -1 -1 5 256;
#X obj 136 121 mapper, f 12;
#X text 132 49 input pot 1;
#X text 230 49 pot range;
#X text 232 111 new range;
#X obj 137 210 hsl 80 15 0 360 0 0 empty empty empty -2 -8 0 10 -228856
-1 -1 44 1;
#X obj 134 288 nbx 5 14 -1e+37 1e+37 0 0 empty empty empty 0 -8 0 10
-228856 -1 -1 0.555556 256;
#X obj 134 234 nbx 5 14 -1e+37 1e+37 0 0 empty empty empty 0 -8 0 10
-228856 -1 -1 2 256;
#X obj 134 259 mapper, f 12;
#X text 130 187 input pot 2;
#X obj 45 71 r p1;
#X obj 48 210 r p2;
#X obj 45 100 unpack;
#X obj 48 239 unpack;
#X text 276 71 low, f 5;
#X text 277 94 high, f 5;
#X text 278 132 low, f 5;
#X text 279 155 high, f 5;
#X msg 233 69 0;
#X text 233 190 pot range;
#X text 235 252 new range;
#X text 279 212 low, f 5;
#X text 280 235 high, f 5;
#X text 281 273 low, f 5;
#X text 282 296 high, f 5;
#X msg 236 210 0;
#X obj 140 362 hsl 80 15 0 360 0 0 empty empty empty -2 -8 0 10 -228856
-1 -1 0 1;
#X obj 137 440 nbx 5 14 -1e+37 1e+37 0 0 empty empty empty 0 -8 0 10
-228856 -1 -1 0 256;
#X obj 137 386 nbx 5 14 -1e+37 1e+37 0 0 empty empty empty 0 -8 0 10
-228856 -1 -1 0 256;
#X obj 137 411 mapper, f 12;
#X obj 51 391 unpack;
#X text 236 342 pot range;
#X text 238 404 new range;
#X text 282 364 low, f 5;
#X text 283 387 high, f 5;
#X text 284 425 low, f 5;
#X text 285 448 high, f 5;
#X msg 239 362 0;
#X text 133 339 input pot 3;
#X obj 51 362 r p3;
#X obj 140 500 hsl 80 15 0 1023 0 0 empty empty empty -2 -8 0 10 -228856
-1 -1 23 1;
#X obj 137 578 nbx 5 14 -1e+37 1e+37 0 0 empty empty empty 0 -8 0 10
-228856 -1 -1 0.00293542 256;
#X obj 137 524 nbx 5 14 -1e+37 1e+37 0 0 empty empty empty 0 -8 0 10
-228856 -1 -1 3 256;
#X obj 137 549 mapper, f 12;
#X obj 51 529 unpack;
#X text 236 480 pot range;
#X text 238 542 new range;
#X text 282 502 low, f 5;
#X text 283 525 high, f 5;
#X text 284 563 low, f 5;
#X text 285 586 high, f 5;
#X msg 239 500 0;
#X text 133 477 input pot 4;
#X obj 51 500 r p4;
#X msg 239 423 0;
#X obj 350 61 loadbang;
#X obj 344 216 loadbang;
#X obj 339 363 loadbang;
#X obj 339 504 loadbang;
#X obj 46 165 s pot1;
#X obj 53 304 s pot2;
#X obj 53 455 s pot3;
#X obj 53 593 s pot4;
#X obj 567 66 hsl 80 15 0 1023 0 0 empty empty empty -2 -8 0 10 -228856
-1 -1 1506 1;
#X obj 564 144 nbx 5 14 -1e+37 1e+37 0 0 empty empty empty 0 -8 0 10
-228856 -1 -1 0.380859 256;
#X obj 564 90 nbx 5 14 -1e+37 1e+37 0 0 empty empty empty 0 -8 0 10
-228856 -1 -1 195 256;
#X obj 564 115 mapper, f 12;
#X text 658 43 pot range;
#X text 660 105 new range;
#X obj 565 204 hsl 80 15 0 1023 0 0 empty empty empty -2 -8 0 10 -228856
-1 -1 0 1;
#X obj 562 282 nbx 5 14 -1e+37 1e+37 0 0 empty empty empty 0 -8 0 10
-228856 -1 -1 0 256;
#X obj 562 228 nbx 5 14 -1e+37 1e+37 0 0 empty empty empty 0 -8 0 10
-228856 -1 -1 0 256;
#X obj 562 253 mapper, f 12;
#X obj 473 94 unpack;
#X obj 476 233 unpack;
#X text 704 65 low, f 5;
#X text 705 88 high, f 5;
#X text 706 126 low, f 5;
#X text 707 149 high, f 5;
#X msg 661 63 0;
#X msg 662 86 1024;
#X text 661 184 pot range;
#X text 663 246 new range;
#X text 707 206 low, f 5;
#X text 708 229 high, f 5;
#X text 709 267 low, f 5;
#X text 710 290 high, f 5;
#X msg 664 204 0;
#X msg 665 227 1024;
#X obj 568 356 hsl 80 15 0 1023 0 0 empty empty empty -2 -8 0 10 -228856
-1 -1 31 1;
#X obj 565 434 nbx 5 14 -1e+37 1e+37 0 0 empty empty empty 0 -8 0 10
-228856 -1 -1 0.00390625 256;
#X obj 565 380 nbx 5 14 -1e+37 1e+37 0 0 empty empty empty 0 -8 0 10
-228856 -1 -1 4 256;
#X obj 565 405 mapper, f 12;
#X obj 479 385 unpack;
#X text 664 336 pot range;
#X text 666 398 new range;
#X text 710 358 low, f 5;
#X text 711 381 high, f 5;
#X text 712 419 low, f 5;
#X text 713 442 high, f 5;
#X msg 667 356 0;
#X msg 668 379 1024;
#X obj 568 494 hsl 80 15 0 1023 0 0 empty empty empty -2 -8 0 10 -228856
-1 -1 6078 1;
#X obj 565 572 nbx 5 14 -1e+37 1e+37 0 0 empty empty empty 0 -8 0 10
-228856 -1 -1 1.54012 256;
#X obj 565 518 nbx 5 14 -1e+37 1e+37 0 0 empty empty empty 0 -8 0 10
-228856 -1 -1 787 256;
#X obj 565 543 mapper, f 12;
#X obj 479 523 unpack;
#X text 664 474 pot range;
#X text 666 536 new range;
#X text 710 496 low, f 5;
#X text 711 519 high, f 5;
#X text 712 557 low, f 5;
#X text 713 580 high, f 5;
#X msg 667 494 0;
#X msg 661 124 0;
#X msg 667 417 0;
#X obj 778 56 loadbang;
#X obj 772 210 loadbang;
#X obj 767 357 loadbang;
#X obj 767 498 loadbang;
#X text 560 43 input pot 5;
#X obj 474 159 s pot5;
#X text 558 181 input pot 6;
#X obj 481 298 s pot6;
#X text 561 333 input pot 7;
#X obj 481 449 s pot7;
#X text 561 471 input pot 8;
#X obj 481 587 s pot8;
#X obj 473 65 r p5;
#X obj 476 204 r p6;
#X obj 479 356 r p7;
#X obj 479 494 r p8;
#X msg 239 561 0;
#X msg 664 265 0;
#X msg 667 555 0;
#X obj 576 627 r buttons;
#X obj 576 655 unpack;
#X obj 579 683 route 1 2 3 4;
#X obj 476 711 s button1;
#X obj 547 711 s button2;
#X obj 619 711 s button3;
#X obj 690 711 s button4;
#X msg 236 271 0;
#X msg 240 586 1;
#X msg 240 523 1022;
#X msg 668 517 1022;
#X msg 234 92 360;
#X msg 237 233 360;
#X msg 237 296 100;
#X msg 240 385 360;
#X msg 240 448 100;
#X msg 233 130 150;
#X msg 235 157 1000;
#X msg 669 442 1;
#X msg 668 580 2;
#X msg 665 290 1000;
#X msg 662 149 2;
#X connect 0 0 2 0;
#X connect 1 0 61 0;
#X connect 2 0 3 0;
#X connect 3 0 1 0;
#X connect 7 0 9 0;
#X connect 8 0 62 0;
#X connect 9 0 10 0;
#X connect 10 0 8 0;
#X connect 12 0 14 0;
#X connect 13 0 15 0;
#X connect 14 0 0 0;
#X connect 15 0 7 0;
#X connect 20 0 3 1;
#X connect 27 0 10 1;
#X connect 28 0 30 0;
#X connect 29 0 63 0;
#X connect 30 0 31 0;
#X connect 31 0 29 0;
#X connect 32 0 28 0;
#X connect 39 0 31 1;
#X connect 41 0 32 0;
#X connect 42 0 44 0;
#X connect 43 0 64 0;
#X connect 44 0 45 0;
#X connect 45 0 43 0;
#X connect 46 0 42 0;
#X connect 53 0 45 1;
#X connect 55 0 46 0;
#X connect 56 0 31 3;
#X connect 57 0 20 0;
#X connect 57 0 148 0;
#X connect 57 0 153 0;
#X connect 57 0 154 0;
#X connect 58 0 27 0;
#X connect 58 0 149 0;
#X connect 58 0 144 0;
#X connect 58 0 150 0;
#X connect 59 0 39 0;
#X connect 59 0 151 0;
#X connect 59 0 56 0;
#X connect 59 0 152 0;
#X connect 60 0 53 0;
#X connect 60 0 146 0;
#X connect 60 0 134 0;
#X connect 60 0 145 0;
#X connect 65 0 67 0;
#X connect 66 0 123 0;
#X connect 67 0 68 0;
#X connect 68 0 66 0;
#X connect 71 0 73 0;
#X connect 72 0 125 0;
#X connect 73 0 74 0;
#X connect 74 0 72 0;
#X connect 75 0 65 0;
#X connect 76 0 71 0;
#X connect 81 0 68 1;
#X connect 82 0 68 2;
#X connect 89 0 74 1;
#X connect 90 0 74 2;
#X connect 91 0 93 0;
#X connect 92 0 127 0;
#X connect 93 0 94 0;
#X connect 94 0 92 0;
#X connect 95 0 91 0;
#X connect 102 0 94 1;
#X connect 103 0 94 2;
#X connect 104 0 106 0;
#X connect 105 0 129 0;
#X connect 106 0 107 0;
#X connect 107 0 105 0;
#X connect 108 0 104 0;
#X connect 115 0 107 1;
#X connect 116 0 68 3;
#X connect 117 0 94 3;
#X connect 118 0 81 0;
#X connect 118 0 82 0;
#X connect 118 0 116 0;
#X connect 118 0 158 0;
#X connect 119 0 89 0;
#X connect 119 0 90 0;
#X connect 119 0 135 0;
#X connect 119 0 157 0;
#X connect 120 0 102 0;
#X connect 120 0 103 0;
#X connect 120 0 117 0;
#X connect 120 0 155 0;
#X connect 121 0 115 0;
#X connect 121 0 147 0;
#X connect 121 0 136 0;
#X connect 121 0 156 0;
#X connect 130 0 75 0;
#X connect 131 0 76 0;
#X connect 132 0 95 0;
#X connect 133 0 108 0;
#X connect 134 0 45 3;
#X connect 135 0 74 3;
#X connect 136 0 107 3;
#X connect 137 0 138 0;
#X connect 138 0 139 0;
#X connect 139 0 140 0;
#X connect 139 1 141 0;
#X connect 139 2 142 0;
#X connect 139 3 143 0;
#X connect 144 0 10 3;
#X connect 145 0 45 4;
#X connect 146 0 45 2;
#X connect 147 0 107 2;
#X connect 148 0 3 2;
#X connect 149 0 10 2;
#X connect 150 0 10 4;
#X connect 151 0 31 2;
#X connect 152 0 31 4;
#X connect 153 0 3 3;
#X connect 154 0 3 4;
#X connect 155 0 94 4;
#X connect 156 0 107 4;
#X connect 157 0 74 4;
#X connect 158 0 68 4;
#X restore 1676 19 pd routing;
#X obj 324 477 r pot5;
#X obj 694 95 r button1;
#X obj 844 51 r button2;
#X obj 1054 38 r button3;
#X obj 1245 15 r button4;
#X obj 274 508 vsl 15 128 0 2 0 0 empty empty empty 0 -9 0 10 -262144
-1 -1 2418 1;
#X obj 209 407 *~;
#X obj 261 408 *~;
#X obj 430 13 r pot5;
#X obj 380 44 vsl 15 128 0 2 0 0 empty empty empty 0 -9 0 10 -262144
-1 -1 2418 1;
#X obj 218 76 *~;
#X obj 267 78 *~;
#X obj 1119 434 loadbang;
#X obj 1116 465 tgl 15 0 empty empty empty 17 7 0 10 -262144 -1 -1
1 1;
#X msg 680 154 read -resize loop_metal.wav channelL channelR;
#X msg 781 109 read -resize funky_drummer.wav channelL channelR;
#X msg 979 83 read -resize funky_loop_01.wav channelL channelR;
#X msg 1201 46 read -resize guitar-loop.wav channelL channelR;
#X connect 2 0 3 0;
#X connect 3 0 4 0;
#X connect 4 0 5 0;
#X connect 4 0 44 0;
#X connect 4 0 45 0;
#X connect 5 0 1 0;
#X connect 6 0 1 0;
#X connect 6 1 48 0;
#X connect 6 1 49 0;
#X connect 7 0 8 0;
#X connect 8 0 5 1;
#X connect 9 0 2 0;
#X connect 12 0 0 0;
#X connect 13 0 0 1;
#X connect 14 0 12 1;
#X connect 14 0 13 1;
#X connect 16 0 17 0;
#X connect 16 0 18 0;
#X connect 17 0 19 0;
#X connect 18 0 20 0;
#X connect 18 0 21 0;
#X connect 21 0 22 0;
#X connect 22 0 24 0;
#X connect 22 0 25 0;
#X connect 22 0 28 0;
#X connect 23 0 22 1;
#X connect 24 0 12 0;
#X connect 25 0 13 0;
#X connect 26 0 27 0;
#X connect 27 0 28 0;
#X connect 28 0 29 0;
#X connect 29 0 30 0;
#X connect 30 0 32 0;
#X connect 31 0 30 1;
#X connect 33 0 14 0;
#X connect 34 0 9 0;
#X connect 35 0 7 0;
#X connect 38 0 43 0;
#X connect 39 0 52 0;
#X connect 40 0 53 0;
#X connect 41 0 54 0;
#X connect 42 0 55 0;
#X connect 43 0 44 1;
#X connect 43 0 45 1;
#X connect 44 0 0 1;
#X connect 45 0 0 0;
#X connect 46 0 47 0;
#X connect 47 0 49 1;
#X connect 47 0 48 1;
#X connect 48 0 0 0;
#X connect 49 0 0 1;
#X connect 50 0 51 0;
#X connect 51 0 15 0;
#X connect 52 0 16 0;
#X connect 53 0 16 0;
#X connect 54 0 16 0;
#X connect 55 0 16 0;
